<svg version="1.1" preserveAspectRatio="none" xmlns="http://www.w3.org/2000/svg" width="500" height="500" viewBox="0 0 500 500"><rect width="100%" height="100%" fill="#252A37" fill-opacity="1"/><svg viewBox="77.9229 170.8485 212.0037 376.8926" width="187.3139247095857" height="333" x="156.343px" y="83.5px" xmlns="http://www.w3.org/2000/svg" xmlns:xlink="http://www.w3.org/1999/xlink" preserveAspectRatio="none"><defs></defs><style>.companyName {fill:#F4D529;fill-opacity:1;}.icon1 {fill:#E3E3E3;fill-opacity:1;}.icon2 {fill:#575757;fill-opacity:1;}.icon3 {fill:#949494;fill-opacity:1;}.icon3-str {stroke:#949494;stroke-opacity:1;}</style><defs></defs><g opacity="1" transform="rotate(0 77.9229 427.7411)">
<svg width="212.0037" height="120" x="77.9229" y="427.7411" version="1.1" preserveAspectRatio="none" viewBox="-1.2 -17.12 50.120000000000005 28.36">
  <g transform="matrix(1 0 0 1 0 0)" class="companyName"><path id="id-D6z1nYkh3" d="M11.20-5.64L11.28-5.56Q10.80-4.96 10.46-4.84Q10.12-4.72 10.08-4.52L10.08-4.52L10.08-4.44L10.36-4.52L10.48-4.44L10.52-4.48L10.64-4.48Q10.72-4.48 10.74-4.44Q10.76-4.40 10.84-4.32L10.84-4.32Q10.40-4.12 10.28-3.82Q10.16-3.52 10.04-3.12L10.04-3.12L10.08-3Q10.08-2.96 9.84-2.82Q9.60-2.68 9.64-2.64L9.64-2.64L9.92-2.60L9.92-2.44L10.08-2.56Q10.08-2.44 9.88-2.04Q9.68-1.64 9.56-1.44L9.56-1.44L9.60-1.32Q9.60-1.24 9.58-1.20Q9.56-1.16 9.56-1.08L9.56-1.08L9.56-1.04Q9.80-1.16 9.82-1.26Q9.84-1.36 10.04-1.40L10.04-1.40Q10.04-1.36 9.96-1.18Q9.88-1 9.78-0.80Q9.68-0.60 9.60-0.40Q9.52-0.20 9.52-0.16L9.52-0.16Q9.60-0.16 9.80-0.38Q10-0.60 10-0.68L10-0.68L10-0.72L9.92-0.72L9.92-0.80Q10-0.88 10.22-1.18Q10.44-1.48 10.52-1.44L10.52-1.44L10.52-1.28Q10.52-0.88 10.24-0.68Q9.96-0.48 9.96-0.28L9.96-0.28L9.96-0.24L10.16-0.24L10.24-0.08L10.16 0.04Q10.08 0.12 10.08 0.16L10.08 0.16L9.72 0.64L9.44 1.08L8.16 2.40Q7.52 2.76 7.04 3.12Q6.56 3.48 6.12 3.82Q5.68 4.16 5.20 4.46Q4.72 4.76 4.12 4.96L4.12 4.96L0.92 6.08L0.12 5.80L-1.16 5.48Q-1.16 5.40-1.18 5.32Q-1.20 5.24-1.20 5.16L-1.20 5.16Q-1.20 5-1 4.80Q-0.80 4.60-0.52 4.42Q-0.24 4.24 0.08 4.12Q0.40 4 0.64 4L0.64 4L2.60 2.40L3.64 1.88L3.60 2.12L3.44 2.16L3.16 2.60L3.36 2.64L4.28 2.20L4.32 2L4.08 1.88Q4.24 1.80 4.30 1.66Q4.36 1.52 4.44 1.32L4.44 1.32L5.04 0.88Q5.16 0.88 5.24 0.80Q5.32 0.72 5.32 0.76L5.32 0.76L5.16 0.64L5.32 0.44Q5.36 0.44 5.60 0.12L5.60 0.12L5.84-0.20L5.92-0.16L6.04-0.80Q6.16-0.92 6.26-1.28Q6.36-1.64 6.36-1.72L6.36-1.72Q6.36-1.84 6.44-2.04Q6.52-2.24 6.64-2.48Q6.76-2.72 6.84-2.92Q6.92-3.12 6.92-3.20L6.92-3.20Q6.92-3.24 6.94-3.44Q6.96-3.64 7-3.86Q7.04-4.08 7.06-4.28Q7.08-4.48 7.08-4.56L7.08-4.56L7-7.84Q7-8.04 7.12-8.36Q7.24-8.68 7.32-9.32L7.32-9.32Q7.32-9.52 7.08-10Q6.84-10.48 6.84-10.68L6.84-10.68Q6.84-11.04 6.88-11.22Q6.92-11.40 6.98-11.58Q7.04-11.76 7.10-11.98Q7.16-12.20 7.16-12.56L7.16-12.56L7-12.56L6.96-13.92Q6.44-13.72 5.72-13.54Q5-13.36 4.72-13.36L4.72-13.36Q4.48-13.36 4.28-13.42Q4.08-13.48 3.84-13.48L3.84-13.48Q3.76-13.48 3.70-13.44Q3.64-13.40 3.60-13.40L3.60-13.40L3.36-13.12Q3.28-13.12 3.06-13.26Q2.84-13.40 2.62-13.56Q2.40-13.72 2.24-13.86Q2.08-14 2.08-14L2.08-14Q2.08-14.12 2.10-14.16Q2.12-14.20 2.12-14.28L2.12-14.28Q2.12-14.32 1.98-14.44Q1.84-14.56 1.84-14.76L1.84-14.76Q1.84-15 2.32-15.16L2.32-15.16L2.40-15.16Q3.88-15.48 5.54-15.82Q7.20-16.16 8.72-16.28L8.72-16.28L9.64-16.44L12.80-16.88Q13.12-16.88 13.26-16.98Q13.40-17.08 13.48-17.12L13.48-17.12L13.64-16.92L14.12-16.84L15.36-15.20L14.76-14.80L14.72-14.88Q14.68-14.88 14.32-14.80Q13.96-14.72 13.76-14.72L13.76-14.72Q13.64-14.72 13.56-14.74Q13.48-14.76 13.40-14.76L13.40-14.76Q13.32-14.76 13.20-14.62Q13.08-14.48 13.04-14.48L13.04-14.48L12.72-14.48L12.04-13.64Q11.60-13.32 11.60-12.64L11.60-12.64Q11.60-12.44 11.62-12.24Q11.64-12.04 11.68-11.80L11.68-11.80L11.68-11.64L11.60-11.56L11.68-11.36Q11.60-11.04 11.58-10.90Q11.56-10.76 11.52-10.64Q11.48-10.52 11.48-10.36Q11.48-10.20 11.48-9.92L11.48-9.92L11.44-8.28L11.56-8.28Q11.56-8.08 11.46-7.96Q11.36-7.84 11.32-7.76L11.32-7.76Q11.32-7.56 11.40-7.54Q11.48-7.52 11.52-7.36L11.52-7.36L11.36-7.12L11.40-6.80Q11.40-6.72 11.16-6.34Q10.92-5.96 10.92-5.84L10.92-5.84Q10.92-5.80 10.96-5.80L10.96-5.80Q11.16-5.80 11.24-5.88L11.24-5.88L11.20-5.64ZM10.48-3.20L10.48-3.36Q10.52-3.36 10.58-3.34Q10.64-3.32 10.80-3.28L10.80-3.28L11-3.44Q11-3.40 11.02-3.38Q11.04-3.36 11.04-3.32L11.04-3.32Q11.04-3.24 10.90-3.16Q10.76-3.08 10.56-2.96L10.56-2.96Q10.48-3.04 10.48-3.20L10.48-3.20ZM10.72-2.48L10.72-2.48L10.80-2.48Q10.80-2.40 10.68-2.26Q10.56-2.12 10.40-2.04L10.40-2.04L10.36-2.04Q10.32-2.04 10.32-2.08L10.32-2.08Q10.32-2.16 10.48-2.30Q10.64-2.44 10.72-2.48ZM4.08 1.48L4.08 1.48L4.08 1.56Q4.08 1.68 3.88 1.68L3.88 1.68Q3.76 1.68 3.76 1.56L3.76 1.56Q3.76 1.40 3.92 1.40L3.92 1.40Q4 1.40 4.08 1.48ZM10.24-3.16L10.24-3.16Q10.40-3.16 10.40-3L10.40-3Q10.40-2.84 10.24-2.84L10.24-2.84Q10.12-2.84 10.12-3L10.12-3Q10.12-3.08 10.24-3.16ZM10.64-1.96L10.64-1.96Q10.68-1.88 10.68-1.88L10.68-1.88Q10.68-1.84 10.44-1.80L10.44-1.80Q10.40-1.80 10.40-1.84L10.40-1.84Q10.40-1.88 10.46-1.96Q10.52-2.04 10.56-2.04L10.56-2.04Q10.64-2.04 10.64-1.96ZM9.64-2.16L9.64-2.16L9.60-2.16Q9.56-2.16 9.56-2.08L9.56-2.08Q9.56-1.96 9.64-1.96L9.64-1.96Q9.72-1.96 9.72-2.04L9.72-2.04Q9.72-2.16 9.64-2.16ZM10.44-2.84L10.44-2.84Q10.52-2.76 10.52-2.72L10.52-2.72Q10.52-2.64 10.48-2.64L10.48-2.64Q10.36-2.64 10.36-2.72L10.36-2.72Q10.36-2.84 10.44-2.84ZM11.44-4.76L11.44-4.76Q11.52-4.76 11.52-4.68L11.52-4.68Q11.52-4.60 11.44-4.60L11.44-4.60Q11.36-4.60 11.36-4.68L11.36-4.68Q11.36-4.76 11.44-4.76ZM10.68-1.24L10.68-1.24Q10.76-1.24 10.76-1.16L10.76-1.16Q10.76-1.08 10.68-1.08L10.68-1.08Q10.60-1.08 10.60-1.16L10.60-1.16Q10.60-1.24 10.68-1.24ZM10.72-1.72L10.72-1.72Q10.80-1.72 10.80-1.64L10.80-1.64Q10.76-1.60 10.72-1.60L10.72-1.60L10.64-1.60L10.64-1.64Q10.64-1.72 10.72-1.72ZM11.12-4.60L11.12-4.56Q11.12-4.48 11.04-4.48L11.04-4.48L11-4.48L11-4.56Q11-4.64 11.08-4.64L11.08-4.64Q11.12-4.64 11.12-4.60L11.12-4.60ZM11.12-3.96L11.20-4.04L11.12-3.84L11.12-3.96Z M33.68 10.28L33.68 10.28L33.44 10.20Q33.36 10.20 33.34 10.18Q33.32 10.16 33.24 10.16L33.24 10.16Q33.20 10.16 33.18 10.18Q33.16 10.20 33.12 10.20L33.12 10.20L32.96 10.28L33.16 10.56L32.88 10.72L32.68 10.64L31.56 11.24L31.40 11.16Q31.36 11.12 31.28 11.06Q31.20 11 31.12 10.96L31.12 10.96L30.88 10.88L30.48 10.56Q30.36 10.32 30.22 10.16Q30.08 10 29.94 9.80Q29.80 9.60 29.66 9.36Q29.52 9.12 29.36 8.72L29.36 8.72L27.36 4.60L27.36 4.64L27.28 4.64Q27.12 4.64 27.04 4.36L27.04 4.36L26.96 4.36L26.88 4.24Q26.80 4 26.80 4L26.80 4L26.88 3.88L27.04 3.96L27 3.88Q27 3.76 26.80 3.64L26.80 3.64L26.72 3.88Q26.52 3.76 26.46 3.60Q26.40 3.44 26.32 3.24L26.32 3.24L26.32 3.16L26.40 3.24L26.44 3.16L26.32 2.92L26.20 3.04L26.20 2.64Q26.20 2.56 26.22 2.56Q26.24 2.56 26.24 2.48L26.24 2.48Q26.24 2.40 26.20 2.36L26.20 2.36L26.20 2.20Q26.08 2.32 26.10 2.40Q26.12 2.48 26.04 2.56L26.04 2.56L26 2.44Q26 2.24 26.18 2.04Q26.36 1.84 26.32 1.80L26.32 1.80Q26.32 1.72 26.26 1.36Q26.20 1 26 1L26 1Q26.08 1 26.04 0.98Q26 0.96 26.08 0.88L26.08 0.88Q26.04 0.72 25.94 0.70Q25.84 0.68 25.76 0.60L25.76 0.60L25.68 0.84L25.84 0.80L25.56 1L25.68 1.12L25.76 1.08L25.80 1.40L25.72 1.48L25.88 1.60Q26.04 1.56 26.04 1.28L26.04 1.28L26.16 1.40Q25.92 1.64 25.92 1.92L25.92 1.92Q25.92 2.04 26 2.20L26 2.20Q25.96 2.20 25.86 2.06Q25.76 1.92 25.64 1.74Q25.52 1.56 25.44 1.40Q25.36 1.24 25.36 1.20L25.36 1.20L25.40 0.96L25.32 0.92L25.32 0.72Q25.24 0.64 25.14 0.50Q25.04 0.36 24.96 0.24L24.96 0.24L24.60-0.36L24.48-0.56Q24.48-0.60 24.42-0.84Q24.36-1.08 24.36-1.12L24.36-1.12L24.08-1.12L23.32-0.52Q23.20-0.40 23.08-0.30Q22.96-0.20 22.76-0.20L22.76-0.20L22.92-0.04L22.44 0.36L22.52 0.52Q22.44 0.68 22.18 0.88Q21.92 1.08 21.72 1.08L21.72 1.08L21.04 1L20.96 1Q20.92 1 20.74 0.88Q20.56 0.76 20.36 0.60Q20.16 0.44 20 0.26Q19.84 0.08 19.84 0L19.84 0Q19.84-0.04 19.88-0.08L19.88-0.08L19.28-0.64Q19.04-0.88 18.80-1.24Q18.56-1.60 18.48-1.84L18.48-1.84Q18.48-1.92 18.54-2.04Q18.60-2.16 18.60-2.24L18.60-2.24L18.28-2.24L18.16-2.48Q17.84-2.88 17.86-3Q17.88-3.12 17.80-3.12L17.80-3.12L17.76-3.08Q17.68-3.08 17.56-3.22Q17.44-3.36 17.44-3.56L17.44-3.56Q17.44-3.76 17.76-4.22Q18.08-4.68 18.52-5.22Q18.96-5.76 19.44-6.30Q19.92-6.84 20.28-7.16L20.28-7.16L19.88-8.16Q19.80-8.24 19.62-8.54Q19.44-8.84 19.24-9.18Q19.04-9.52 18.84-9.84Q18.64-10.16 18.56-10.24L18.56-10.24Q18.12-11.04 17.62-12.10Q17.12-13.16 17.12-14.08L17.12-14.08Q17.12-14.48 17.34-14.76Q17.56-15.04 17.84-15.28Q18.12-15.52 18.42-15.76Q18.72-16 18.92-16.36L18.92-16.36Q19.04-16.56 19.56-16.74Q20.08-16.92 20.32-16.92L20.32-16.92L21.28-16.92Q22.28-16.72 23.20-16.30Q24.12-15.88 24.84-15.28Q25.56-14.68 26-13.94Q26.44-13.20 26.44-12.32L26.44-12.32Q26.44-11.44 26-10.70Q25.56-9.96 25.28-9.68L25.28-9.68Q25.16-9.44 24.92-9.12Q24.68-8.80 24.46-8.50Q24.24-8.20 24.06-7.94Q23.88-7.68 23.88-7.56L23.88-7.56Q23.88-7.12 24.18-6.88Q24.48-6.64 24.48-6.32L24.48-6.32L24.48-6.08Q24.48-5.88 24.74-5.56Q25-5.24 25.16-4.88L25.16-4.88L25.40-4.56Q25.48-4.56 25.64-4.88Q25.80-5.20 25.80-5.28L25.80-5.28L27.16-6.56Q27.24-6.64 27.54-6.90Q27.84-7.16 27.92-7.20L27.92-7.20L28-7.28L27.84-7.28L28.48-7.92Q28.44-7.96 28.44-8.04L28.44-8.04Q28.44-8.20 28.60-8.40Q28.76-8.60 28.96-8.60L28.96-8.60Q29.04-8.60 29.06-8.52Q29.08-8.44 29.20-8.44L29.20-8.44L29.44-8.52Q29.52-8.52 29.62-8.40Q29.72-8.28 29.84-8.28L29.84-8.28Q29.96-8.28 30-8.30Q30.04-8.32 30.16-8.32L30.16-8.32Q30.36-8.32 30.58-8.14Q30.80-7.96 30.98-7.68Q31.16-7.40 31.28-7.12Q31.40-6.84 31.40-6.64L31.40-6.64L31.40-6.44Q31.24-6.28 31.14-6.12Q31.04-5.96 30.92-5.92L30.92-5.92L29.84-5.12Q29.76-4.88 29.52-4.68Q29.28-4.48 28.98-4.32Q28.68-4.16 28.38-4.02Q28.08-3.88 27.92-3.76L27.92-3.76L27.84-3.60Q27.64-3.36 27.44-3.22Q27.24-3.08 27.08-2.96Q26.92-2.84 26.84-2.66Q26.76-2.48 26.76-2.20L26.76-2.20L26.96-2.20Q26.96-2.08 27.18-1.70Q27.40-1.32 27.70-0.90Q28-0.48 28.28-0.10Q28.56 0.28 28.64 0.36L28.64 0.36L28.72 0.36Q28.84 0.56 28.98 0.98Q29.12 1.40 29.32 1.48L29.32 1.48L29.68 1.56L29.44 1.80L29.52 1.88L29.68 1.80Q29.68 1.88 29.76 1.98Q29.84 2.08 29.84 2.16L29.84 2.16L29.68 2.20L29.68 2.28L30.16 2.20L30.40 2.88L30.28 3.04Q30.08 2.84 30.08 2.64L30.08 2.64L29.84 2.60Q29.84 2.84 30.08 3.02Q30.32 3.20 30.48 3.20L30.48 3.20Q30.48 3.32 30.42 3.46Q30.36 3.60 30.28 3.60L30.28 3.60L30.28 3.64Q30.28 3.88 30.48 4.08L30.48 4.08L30.72 4.24Q30.72 4.44 30.76 4.62Q30.80 4.80 31.08 4.80L31.08 4.80L31 4.96Q31 5.12 31.16 5.32Q31.32 5.52 31.40 5.72L31.40 5.72L31.84 6.76Q31.84 6.84 31.86 6.96Q31.88 7.08 31.96 7.08L31.96 7.08L32.04 7.08L32.16 6.96L32.12 7.16Q32.12 7.24 32.28 7.40L32.28 7.40L32.44 7.20Q32.40 7.28 32.40 7.40L32.40 7.40Q32.40 7.64 32.60 7.72L32.60 7.72Q32.52 7.80 32.46 7.86Q32.40 7.92 32.28 7.92L32.28 7.92L32.44 8L32.52 7.92L32.68 7.92L32.68 8.52L32.92 8.92L33.16 9.16Q33.28 9.36 33.48 9.70Q33.68 10.04 33.68 10.28ZM20.44-14.32L20.48-13.88L20.48-13.56Q20.48-12.92 20.90-12.28Q21.32-11.64 21.64-11L21.64-11Q21.84-10.52 22.08-10Q22.32-9.48 22.68-9.04L22.68-9.04Q22.76-9.20 22.88-9.30Q23-9.40 23.08-9.56L23.08-9.56L23.80-11.52Q23.80-11.56 23.84-11.66Q23.88-11.76 23.88-11.84L23.88-11.84L23.72-12.36Q23.52-13.08 23.16-13.84Q22.80-14.60 22.24-14.84L22.24-14.84L22.04-14.96Q21.96-15 21.84-15.04Q21.72-15.08 21.64-15.08L21.64-15.08Q21.08-15.08 20.86-14.92Q20.64-14.76 20.44-14.32L20.44-14.32ZM20.16-3.56L20.16-3.56Q20.16-3.44 20.30-3.14Q20.44-2.84 20.62-2.52Q20.80-2.20 20.98-1.92Q21.16-1.64 21.24-1.60L21.24-1.60L21.52-1.72Q21.80-1.88 21.80-1.92L21.80-1.92L21.80-1.68L22.44-2.56Q22.56-2.56 22.68-2.74Q22.80-2.92 22.80-3.04L22.80-3.04Q22.72-3.28 22.54-3.54Q22.36-3.80 22.28-3.88L22.28-3.88L21.72-4.84Q21.64-5 21.54-5.16Q21.44-5.32 21.32-5.48L21.32-5.48L21.24-5.56Q21.16-5.48 20.94-5.26Q20.72-5.04 20.52-4.80Q20.32-4.56 20.16-4.34Q20-4.12 20-4.04L20-4.04L20-3.96Q20.12-3.72 20.14-3.68Q20.16-3.64 20.16-3.56Z M44.24-7.36L44.24-7.36Q44.16-7.36 43.98-7.32Q43.80-7.28 43.64-7.28L43.64-7.28L43.56-7.28L43.44-7.32Q43.32-7.32 43.14-7.22Q42.96-7.12 42.84-7.12L42.84-7.12L42.40-6.88L42-6.96L41.40-6.80L40.96-6.88Q40.88-6.88 40.60-6.70Q40.32-6.52 40.20-6.52L40.20-6.52L39.84-6.48L39.20-4.72Q39.08-4.36 38.98-4.02Q38.88-3.68 38.88-3.56L38.88-3.56L38.88-3.08L39.04-2.88L39.20-2.88Q39.32-2.88 39.54-2.82Q39.76-2.76 39.88-2.76L39.88-2.76L40.84-2.76Q42.32-2.64 42.80-2.64L42.80-2.64L42.96-2.64Q43.04-2.64 43.40-2.60Q43.76-2.56 43.80-2.56L43.80-2.56Q43.84-2.56 44-2.58Q44.16-2.60 44.34-2.60Q44.52-2.60 44.66-2.62Q44.80-2.64 44.84-2.64L44.84-2.64L46.68-2.32Q46.80-2.32 47.06-2.28Q47.32-2.24 47.58-2.18Q47.84-2.12 48.06-2.04Q48.28-1.96 48.28-1.92L48.28-1.92Q48.28-1.48 47.84-1.20Q47.40-0.92 47.24-0.76L47.24-0.76L47.20-0.76Q46.32-0.56 45.62-0.54Q44.92-0.52 44.04-0.52L44.04-0.52L42.48-0.52Q42.24-0.60 41.98-0.60Q41.72-0.60 41.44-0.60L41.44-0.60Q41.08-0.60 40.02-0.50Q38.96-0.40 38-0.40L38-0.40L37.28-0.24Q37-0.28 36.68-0.36Q36.36-0.44 36.20-0.60L36.20-0.60L35.20-1.76L35.04-2.16L35.04-2.84L35.36-3.52Q35.36-3.56 35.44-3.88L35.44-3.88L35.56-4.12Q35.64-4.36 35.72-4.52Q35.80-4.68 35.92-4.92L35.92-4.92L36-4.80Q36.08-4.96 36.08-5.08L36.08-5.08L36.08-5.16L35.92-5.08L35.84-5.16Q35.84-5.40 35.94-5.70Q36.04-6 36.08-6.44L36.08-6.44Q36.12-6.40 36.20-6.40L36.20-6.40Q36.32-6.40 36.48-6.50Q36.64-6.60 36.72-6.68L36.72-6.68L36.48-6.72Q36.48-7.12 36.68-7.40Q36.88-7.68 36.88-8.08L36.88-8.08Q36.64-8.08 36.52-7.98Q36.40-7.88 36.32-7.76Q36.24-7.64 36.16-7.50Q36.08-7.36 35.88-7.24L35.88-7.24L35.88-7.48Q35.88-7.52 35.98-7.90Q36.08-8.28 36.26-8.78Q36.44-9.28 36.70-9.78Q36.96-10.28 37.28-10.60L37.28-10.60L37.36-10.48Q37.48-10.64 37.58-10.82Q37.68-11 37.68-11.20L37.68-11.20L37.68-11.32L37.52-10.96L37.36-11.04L37.52-11.52L37.60-11.44Q37.64-11.40 37.80-11.40L37.80-11.40Q37.84-11.40 37.94-11.82Q38.04-12.24 38.08-12.44L38.08-12.44Q38-12.24 37.86-12.02Q37.72-11.80 37.68-11.76L37.68-11.76L37.60-11.76Q37.60-11.88 37.72-12.20Q37.84-12.52 37.84-12.64L37.84-12.64L38-13.48L38-13.88L37.16-14.56L36.76-14.88Q36.68-14.92 36.64-15.14Q36.60-15.36 36.60-15.40L36.60-15.40Q36.60-15.72 36.96-15.72L36.96-15.72L39.28-15.72Q39.44-15.72 39.76-15.84L39.76-15.84L40.28-15.96L41.24-15.92Q41.88-15.96 42.50-15.96Q43.12-15.96 43.76-16.08L43.76-16.08L47.80-16.08Q48.04-16.08 48.48-15.78Q48.92-15.48 48.92-15.28L48.92-15.28Q48.92-15.08 48.78-15.02Q48.64-14.96 48.64-14.84L48.64-14.84L48.68-14.64Q48.68-14.56 48.26-14.50Q47.84-14.44 47.56-14.44L47.56-14.44L46.88-14.44Q46.40-14.44 46.08-14.30Q45.76-14.16 45.50-14Q45.24-13.84 45-13.70Q44.76-13.56 44.52-13.56L44.52-13.56Q44.52-13.40 44.30-13.32Q44.08-13.24 43.78-13.16Q43.48-13.08 43.18-12.98Q42.88-12.88 42.72-12.72L42.72-12.72Q42.40-12.40 42.12-12.02Q41.84-11.64 41.56-11.24L41.56-11.24Q41.24-10.80 40.96-10.32L40.96-10.32Q40.96-10.16 41.12-10.16L41.12-10.16Q41-9.76 40.78-9.64Q40.56-9.52 40.56-9L40.56-9Q41.52-9 42.40-9.06Q43.28-9.12 44.24-9.12L44.24-9.12L45.36-9.12Q45.48-9.12 45.70-9.06Q45.92-9 46-9L46-9L46.48-8.80L46.48-8.64L46.80-8.80L46.72-8.40L46.56-7.84Q46.48-7.84 46.40-7.76Q46.32-7.68 46.18-7.56Q46.04-7.44 45.84-7.36Q45.64-7.28 45.28-7.28L45.28-7.28Q45.04-7.28 44.74-7.32Q44.44-7.36 44.24-7.36ZM36.64-6.24L36.24-6.24Q36.16-6.16 36.16-6.04L36.16-6.04L36.16-5.88Q36.40-6.12 36.64-6.12L36.64-6.12L36.64-6.24Z"/></g>
</svg>
</g><g opacity="1" transform="rotate(0 120.3236 170.8485)">
<svg width="127.2023" height="226.8926" x="120.3236" y="170.8485" version="1.1" preserveAspectRatio="none" viewBox="54 17.892501831054688 92.00315856933594 164.1074981689453">
  <g transform="matrix(1 0 0 1 0 0)"><g><g><defs><path d="M127 50.5c-1.1 0-2.2-.2-3.2-.6-2.2-.9-3.9-2.7-4.9-5.1-1.3-3.2-1.2-7.1.3-10.8 2.7-6.6 9.2-10.2 14.5-8 2.2.9 3.9 2.7 4.9 5.1 1.3 3.2 1.2 7.1-.3 10.8-2.2 5.2-6.8 8.6-11.3 8.6zm3.4-21.1c-2.9 0-6 2.5-7.6 6.2-1.1 2.6-1.2 5.5-.3 7.7.4 1 1.2 2.3 2.8 2.9 3.2 1.3 7.5-1.4 9.3-5.8 1.1-2.6 1.2-5.5.3-7.7-.4-1-1.2-2.3-2.8-2.9-.5-.3-1.1-.4-1.7-.4zm6 11.7z" data-color="1" id="id-DFQBjvS22"></path></defs><use class="icon1" xlink:href="#id-DFQBjvS22"></use></g><g><defs><path d="M114.9 84.5h-2.5c-6.3-.1-12.6-.6-18.8-1.5-1.6-.2-2.9-1.1-3.8-2.4-.9-1.3-1.1-2.9-.7-4.4.7-2.4 3-4.1 5.6-3.9 6 .4 12.4.7 18.7-.3 7.6-1.3 13.9-4.6 17.8-9.4.7-.9 2-1 2.8-.3.9.7 1 2 .3 2.8-4.5 5.5-11.6 9.4-20.2 10.8-6.7 1.1-13.7.8-19.7.4-.7 0-1.3.4-1.4 1-.1.5 0 .9.2 1.1.1.2.4.5 1 .6 6.1.8 12.2 1.3 18.3 1.4 4 .1 8.8 0 13.3-1 4.6-1 8.5-2.9 11.3-5.5 3.1-2.9 5-6.9 4.9-10.7 0-2.7-1-5.5-2.9-8.5-1.7-2.7-4-5.2-6.2-7.6-.8-.8-.7-2.1.1-2.8.8-.8 2.1-.7 2.8.1 2.3 2.5 4.7 5.1 6.7 8.1 2.2 3.5 3.4 7.1 3.5 10.5.1 4.9-2.2 9.9-6.2 13.7-3.3 3.1-7.9 5.4-13.2 6.5-4 1.1-8.1 1.3-11.7 1.3z" data-color="1" id="id-DFQBjvS23"></path></defs><use class="icon1" xlink:href="#id-DFQBjvS23"></use></g><g><defs><path d="M136.5 182c-3.5 0-6.4-2.7-6.6-6.1-.4-5-.8-13.3-1.2-23-.5-11.7-1.1-24.8-1.9-35.6l-2.5 1.2c-1 .5-2.2.1-2.7-.9s-.1-2.2.9-2.7l4.1-2c.3-.1.6-.2.9-.2 1.7 0 3.1 1.3 3.2 3 .8 11.1 1.5 24.9 2 37.1.4 9.7.8 18 1.2 22.9.1 1.3 1.3 2.4 2.7 2.4 1.4 0 2.6-1.1 2.7-2.5 2.5-43.8 1.4-75.2 1.4-75.5-.2-7.6-.8-23.1-1.6-26.9-.2-1.1.5-2.1 1.5-2.4 1.1-.2 2.1.5 2.4 1.5 1.1 5.1 1.6 26.7 1.7 27.6 0 .3 1.2 31.9-1.4 75.9-.4 3.5-3.3 6.2-6.8 6.2z" data-color="1" id="id-DFQBjvS24"></path></defs><use class="icon1" xlink:href="#id-DFQBjvS24"></use></g><g><defs><path d="M90.3 54.7c-1.1 0-2.2-.2-3.2-.6-2.2-.9-3.9-2.7-4.9-5.1-1.3-3.2-1.2-7.1.3-10.8 2.7-6.6 9.2-10.2 14.5-8 2.2.9 3.9 2.7 4.9 5.1 1.3 3.2 1.2 7.1-.3 10.8-2.2 5.2-6.8 8.6-11.3 8.6zm3.4-21.1c-2.9 0-6 2.5-7.6 6.2-1.1 2.6-1.2 5.5-.3 7.7.4 1 1.2 2.3 2.8 2.9 3.2 1.3 7.5-1.4 9.3-5.8 1.1-2.6 1.2-5.5.3-7.7-.4-1-1.2-2.3-2.8-2.9-.6-.3-1.1-.4-1.7-.4zm6 11.7z" data-color="1" id="id-DFQBjvS25"></path></defs><use class="icon1" xlink:href="#id-DFQBjvS25"></use></g><g><defs><path d="M100.3 57.4c-3.1 0-6.1-1.7-7.4-4.4-.5-1-.1-2.2.9-2.7s2.2-.1 2.7.9c.8 1.6 3 2.4 4.9 2 1.9-.5 3.7-2 4.8-4.3 1.9-4.1 1.1-9.6-2.1-14.1-2-2.8-4.8-5.3-8.9-7.9-1.4-.9-2.2-2.4-2.2-4s.7-3.2 2.1-4.1c1.5-1.1 3.6-1.2 5.2-.3 6.7 3.6 11.8 8.9 15.2 15.7.5 1 .1 2.2-.9 2.7s-2.2.1-2.7-.9c-3-6-7.5-10.7-13.5-14-.3-.2-.7-.1-1 .1-.4.3-.4.6-.4.8 0 .2.1.5.4.7 4.5 2.9 7.7 5.7 10 9 4.1 5.7 5.1 12.7 2.5 18.1-1.6 3.3-4.3 5.7-7.5 6.4-.7.3-1.4.3-2.1.3z" data-color="1" id="id-DFQBjvS26"></path></defs><use class="icon1" xlink:href="#id-DFQBjvS26"></use></g><g><defs><path d="M105.4 68.7c-.7 0-1.3-.3-1.7-.9-.6-.9-.3-2.2.6-2.8 5.6-3.6 9.5-9.8 10.3-16.5.1-1.1 1.1-1.9 2.2-1.7 1.1.1 1.9 1.1 1.7 2.2-1 7.9-5.5 15.1-12.1 19.4-.2.2-.6.3-1 .3z" data-color="1" id="id-DFQBjvS27"></path></defs><use class="icon1" xlink:href="#id-DFQBjvS27"></use></g><g><defs><path d="M90.5 182c-26.3 0-35.4-7.8-35.8-8.1-.5-.4-.7-1-.7-1.6 1.4-33.4 8.9-66 22.3-96.7L73.9 68c-6.3-4.3-10.5-11.4-11.5-19-.3-2.2-.1-4.5.4-6.8 1.4-5.9 5.6-16.9 18-23.6 1.6-.9 3.7-.8 5.2.3 1.3 1 2.1 2.5 2.1 4.1 0 1.6-.9 3.1-2.2 4-4.1 2.7-6.9 5.2-8.9 8-3.2 4.5-4.1 10-2.1 14.1 1 2.2 2.8 3.8 4.8 4.3s4.2-.4 4.9-2c.5-1 1.7-1.4 2.7-.9 1 .5 1.4 1.7.9 2.7-1.6 3.3-5.6 5-9.4 4.1-3.1-.7-5.9-3.1-7.5-6.4-2.6-5.4-1.6-12.4 2.5-18.1 2.3-3.2 5.5-6.1 10-9 .3-.2.4-.5.4-.7 0-.1 0-.5-.4-.8-.3-.2-.7-.2-1-.1-11 6-14.8 15.7-16 21-.4 1.9-.6 3.7-.3 5.4.8 6.7 4.7 12.9 10.3 16.5.4.3.7.6.8 1.1l2.9 9c.1.5.1 1-.1 1.4-13.2 30.1-20.7 62-22.2 94.9 2.5 1.6 11.9 6.6 32.5 6.6 20.5 0 29.9-5 32.5-6.6-1.3-28.1-7-55.7-17-82.1-.4-1 .1-2.2 1.2-2.6 1-.4 2.2.1 2.6 1.2 10.3 27.1 16.1 55.5 17.3 84.4 0 .6-.2 1.2-.7 1.6-.6.2-9.8 8-36.1 8z" data-color="1" id="id-DFQBjvS28"></path></defs><use class="icon1" xlink:href="#id-DFQBjvS28"></use></g><g><defs><path d="M91 68.8c-.3 0-.7-.1-1-.2-2.9-1.6-6.3-2.2-9.6-1.7-1.1.2-2.1-.6-2.3-1.7s.6-2.1 1.7-2.3c3.7-.5 7.6.1 11 1.7C94 63 98 62.7 101.4 64c1 .4 1.6 1.5 1.2 2.6-.4 1-1.5 1.6-2.6 1.2-2.6-1-5.7-.7-8.1.8-.2.1-.5.2-.9.2z" data-color="1" id="id-DFQBjvS29"></path></defs><use class="icon1" xlink:href="#id-DFQBjvS29"></use></g></g></g>
</svg>
</g></svg></svg>